<svg width="135" height="25" viewBox="0 0 135 25" fill="none" xmlns="http://www.w3.org/2000/svg">
<g id="DEVELLIGHT" filter="url(#filter0_d_1_2)">
<path d="M9.125 0.249999C10.2417 0.249999 11.275 0.408332 12.225 0.725C13.175 1.04167 13.9917 1.51667 14.675 2.15C15.375 2.76667 15.9167 3.55 16.3 4.5C16.7 5.43333 16.9 6.525 16.9 7.775C16.9 9.29167 16.6667 10.575 16.2 11.625C15.7333 12.675 15.1 13.525 14.3 14.175C13.5167 14.825 12.6 15.2917 11.55 15.575C10.5167 15.8583 9.41667 16 8.25 16H4V0.249999H9.125ZM6.3 14.1H8.025C8.825 14.1 9.60833 14.0167 10.375 13.85C11.1417 13.6667 11.8167 13.3417 12.4 12.875C13 12.3917 13.4833 11.7417 13.85 10.925C14.2167 10.1083 14.4 9.05833 14.4 7.775C14.4 6.875 14.2667 6.075 14 5.375C13.7333 4.675 13.35 4.09167 12.85 3.625C12.35 3.14167 11.7417 2.775 11.025 2.525C10.325 2.275 9.54167 2.15 8.675 2.15H6.3V14.1ZM20.04 0.249999H29.54V2.15H22.34V6.875H28.89V8.75H22.34V14.1H29.615V16H20.04V0.249999ZM32.7924 0.249999L36.0674 9.15C36.3007 9.76667 36.5507 10.45 36.8174 11.2C37.1007 11.9333 37.359 12.6167 37.5924 13.25H37.6424L39.1424 9.15L42.4674 0.249999H44.8674L38.6674 16H36.4424L30.3674 0.249999H32.7924ZM46.7979 0.249999H56.2979V2.15H49.0979V6.875H55.6479V8.75H49.0979V14.1H56.3729V16H46.7979V0.249999ZM59.3223 0.249999H61.6223V14.05H68.3473V16H59.3223V0.249999ZM70.7236 0.249999H73.0236V14.05H79.7486V16H70.7236V0.249999ZM84.425 0.249999V16H82.125V0.249999H84.425ZM95.2744 0.0249985C96.1911 0.0249985 97.0161 0.0916653 97.7494 0.224999C98.4994 0.358333 99.1911 0.591666 99.8244 0.924999L99.2744 2.725C98.6577 2.44167 98.0494 2.23333 97.4494 2.1C96.8661 1.96667 96.2327 1.9 95.5494 1.9C94.8161 1.9 94.1161 2.00833 93.4494 2.225C92.7827 2.44167 92.1911 2.8 91.6744 3.3C91.1744 3.78333 90.7744 4.425 90.4744 5.225C90.1744 6.00833 90.0244 6.98333 90.0244 8.15C90.0244 10.1667 90.4827 11.7 91.3994 12.75C92.3161 13.8 93.6077 14.325 95.2744 14.325C95.9077 14.325 96.4494 14.2917 96.8994 14.225C97.3661 14.1583 97.8161 14.0417 98.2494 13.875V9.5H95.2744V7.7H100.399V15.3C99.7327 15.5667 98.9911 15.7917 98.1744 15.975C97.3577 16.1417 96.3911 16.225 95.2744 16.225C94.1911 16.225 93.1744 16.05 92.2244 15.7C91.2911 15.35 90.4744 14.8333 89.7744 14.15C89.0744 13.4667 88.5244 12.625 88.1244 11.625C87.7244 10.625 87.5244 9.46667 87.5244 8.15C87.5244 6.83333 87.7161 5.66667 88.0994 4.65C88.4994 3.63333 89.0411 2.78333 89.7244 2.1C90.4077 1.41667 91.2244 0.9 92.1744 0.549999C93.1244 0.199999 94.1577 0.0249985 95.2744 0.0249985ZM103.854 16V0.249999H106.154V6.875H113.629V0.249999H115.929V16H113.629V8.825H106.154V16H103.854ZM130.194 0.249999V2.2H125.269V16H122.969V2.2H118.144V0.249999H130.194Z" fill="white"/>
</g>
<defs>
<filter id="filter0_d_1_2" x="0" y="0.0250244" width="134.194" height="24.2" filterUnits="userSpaceOnUse" color-interpolation-filters="sRGB">
<feFlood flood-opacity="0" result="BackgroundImageFix"/>
<feColorMatrix in="SourceAlpha" type="matrix" values="0 0 0 0 0 0 0 0 0 0 0 0 0 0 0 0 0 0 127 0" result="hardAlpha"/>
<feOffset dy="4"/>
<feGaussianBlur stdDeviation="2"/>
<feComposite in2="hardAlpha" operator="out"/>
<feColorMatrix type="matrix" values="0 0 0 0 0 0 0 0 0 0 0 0 0 0 0 0 0 0 0.25 0"/>
<feBlend mode="normal" in2="BackgroundImageFix" result="effect1_dropShadow_1_2"/>
<feBlend mode="normal" in="SourceGraphic" in2="effect1_dropShadow_1_2" result="shape"/>
</filter>
</defs>
</svg>
