<svg width="134" height="17" viewBox="0 0 134 17" fill="none" xmlns="http://www.w3.org/2000/svg">
<rect width="134" height="17" fill="#E5E5E5"/>
<path d="M5.942 15.23C8.01 15.23 9.66733 14.6727 10.914 13.558C12.1753 12.4287 12.806 10.7347 12.806 8.476C12.806 6.21733 12.0947 4.42067 10.672 3.086C9.264 1.75133 7.51867 1.084 5.436 1.084C4.10133 1.084 2.94267 1.12067 1.96 1.194V15.054C2.91333 15.1713 4.24067 15.23 5.942 15.23ZM5.436 0.115999C7.856 0.115999 9.88 0.871332 11.508 2.382C13.136 3.878 13.95 5.91667 13.95 8.498C13.95 9.80333 13.7373 10.962 13.312 11.974C12.9013 12.9713 12.3293 13.7707 11.596 14.372C10.0853 15.5893 8.20067 16.198 5.942 16.198C4.46067 16.198 2.78133 16.1173 0.904 15.956V0.269999C2.4 0.167332 3.91067 0.115999 5.436 0.115999ZM18.8435 16V0.269999H26.1475V1.194H19.8995V6.98H25.5535V7.882H19.8995V15.076H26.3895V16H18.8435ZM35.8529 12.81L41.1329 0.269999H42.2549L35.4789 16.132H34.8629L28.0649 0.269999H29.2529L34.5329 12.766C34.8996 13.6607 35.1269 14.2767 35.2149 14.614C35.3322 14.1447 35.5449 13.5433 35.8529 12.81ZM45.5056 16V0.269999H52.8096V1.194H46.5616V6.98H52.2156V7.882H46.5616V15.076H53.0516V16H45.5056ZM57.279 16V0.269999H58.335V15.032H65.573V16H57.279ZM68.9665 16V0.269999H70.0225V15.032H77.2605V16H68.9665ZM80.654 16V0.269999H81.71V16H80.654ZM94.2615 0.973999C92.3402 0.973999 90.7708 1.66333 89.5535 3.042C88.3362 4.42067 87.7275 6.11467 87.7275 8.124C87.7275 10.1187 88.4168 11.8127 89.7955 13.206C91.1742 14.5993 92.8535 15.296 94.8335 15.296C96.5348 15.296 97.9502 15.0613 99.0795 14.592V8.124H100.136V15.076C98.8595 15.868 97.0702 16.264 94.7675 16.264C92.4795 16.264 90.5435 15.4793 88.9595 13.91C87.3755 12.326 86.5835 10.3973 86.5835 8.124C86.5835 5.836 87.3022 3.91467 88.7395 2.36C90.1768 0.790666 92.0175 0.00599873 94.2615 0.00599873C96.0215 0.00599873 97.8035 0.299332 99.6075 0.885999L99.3215 1.766C97.5615 1.238 95.8748 0.973999 94.2615 0.973999ZM117.455 16V8.124H106.653V16H105.597V0.269999H106.653V7.178H117.455V0.269999H118.511V16H117.455ZM127.214 1.194H121.89V0.269999H133.594V1.194H128.27V16H127.214V1.194Z" fill="black"/>
</svg>
